<svg xmlns="http://www.w3.org/2000/svg" xmlns:xlink="http://www.w3.org/1999/xlink" width="336" zoomAndPan="magnify" viewBox="0 0 252 143.999998" height="192" preserveAspectRatio="xMidYMid meet" version="1.0"><defs><g/></defs><rect x="-25.2" width="302.4" fill="#ffffff" y="-14.4" height="172.799997" fill-opacity="1"/><rect x="-25.2" width="302.4" fill="#ffffff" y="-14.4" height="172.799997" fill-opacity="1"/><path fill="#000000" d="M 103.894531 15.289062 L 148.070312 15.289062 C 164.136719 15.289062 177.160156 28.3125 177.160156 44.378906 L 177.160156 102.554688 C 177.160156 118.617188 164.136719 131.640625 148.070312 131.640625 L 103.894531 131.640625 C 87.828125 131.640625 74.804688 118.617188 74.804688 102.554688 L 74.804688 44.378906 C 74.804688 28.3125 87.828125 15.289062 103.894531 15.289062 Z M 103.894531 15.289062 " fill-opacity="1" fill-rule="nonzero"/><g fill="#ffde59" fill-opacity="1"><g transform="translate(99.826594, 91.742055)"><g><path d="M 4.25 -58.46875 L 21.1875 -58.46875 C 29.3125 -58.46875 36.253906 -55.691406 42.015625 -50.140625 C 47.785156 -44.585938 50.671875 -37.628906 50.671875 -29.265625 C 50.671875 -20.859375 47.800781 -13.878906 42.0625 -8.328125 C 36.320312 -2.773438 29.363281 0 21.1875 0 L 4.25 0 Z M 17.578125 -11.90625 L 19.625 -11.90625 C 24.5 -11.90625 28.484375 -13.546875 31.578125 -16.828125 C 34.671875 -20.117188 36.238281 -24.242188 36.28125 -29.203125 C 36.28125 -34.160156 34.734375 -38.289062 31.640625 -41.59375 C 28.546875 -44.90625 24.539062 -46.5625 19.625 -46.5625 L 17.578125 -46.5625 Z M 17.578125 -11.90625 "/></g></g></g><path fill="#ffde59" d="M 45.664062 100.0625 L 206.316406 100.0625 C 209.316406 100.0625 212.195312 101.253906 214.316406 103.375 C 216.4375 105.496094 217.628906 108.375 217.628906 111.375 L 217.628906 116.339844 C 217.628906 119.34375 216.4375 122.21875 214.316406 124.34375 C 212.195312 126.464844 209.316406 127.65625 206.316406 127.65625 L 45.664062 127.65625 C 39.417969 127.65625 34.351562 122.589844 34.351562 116.339844 L 34.351562 111.375 C 34.351562 105.125 39.417969 100.0625 45.664062 100.0625 Z M 45.664062 100.0625 " fill-opacity="1" fill-rule="nonzero"/><g fill="#000000" fill-opacity="1"><g transform="translate(44.487568, 116.662604)"><g><path d="M 1.28125 -0.84375 C 0.632812 -1.550781 0.3125 -2.414062 0.3125 -3.4375 C 0.3125 -4.46875 0.632812 -5.335938 1.28125 -6.046875 C 1.925781 -6.753906 2.742188 -7.109375 3.734375 -7.109375 C 4.648438 -7.109375 5.40625 -6.820312 6 -6.25 L 6 -11.5625 L 8.375 -11.5625 L 8.375 0 L 6.03125 0 L 6.03125 -0.78125 L 6 -0.78125 C 5.40625 -0.125 4.648438 0.203125 3.734375 0.203125 C 2.742188 0.203125 1.925781 -0.144531 1.28125 -0.84375 Z M 3.296875 -4.609375 C 2.992188 -4.304688 2.84375 -3.914062 2.84375 -3.4375 C 2.84375 -2.96875 2.988281 -2.582031 3.28125 -2.28125 C 3.570312 -1.976562 3.960938 -1.828125 4.453125 -1.828125 C 4.921875 -1.828125 5.300781 -1.976562 5.59375 -2.28125 C 5.894531 -2.59375 6.046875 -2.976562 6.046875 -3.4375 C 6.046875 -3.914062 5.890625 -4.304688 5.578125 -4.609375 C 5.273438 -4.921875 4.898438 -5.078125 4.453125 -5.078125 C 3.992188 -5.078125 3.609375 -4.921875 3.296875 -4.609375 Z M 3.296875 -4.609375 "/></g></g></g><g fill="#000000" fill-opacity="1"><g transform="translate(52.416123, 116.662604)"><g><path d="M 7.796875 -3.125 L 2.78125 -3.125 C 2.78125 -2.632812 2.9375 -2.269531 3.25 -2.03125 C 3.5625 -1.800781 3.90625 -1.6875 4.28125 -1.6875 C 4.664062 -1.6875 4.96875 -1.738281 5.1875 -1.84375 C 5.414062 -1.945312 5.671875 -2.15625 5.953125 -2.46875 L 7.6875 -1.59375 C 6.96875 -0.394531 5.773438 0.203125 4.109375 0.203125 C 3.066406 0.203125 2.171875 -0.148438 1.421875 -0.859375 C 0.679688 -1.578125 0.3125 -2.4375 0.3125 -3.4375 C 0.3125 -4.445312 0.679688 -5.3125 1.421875 -6.03125 C 2.171875 -6.75 3.066406 -7.109375 4.109375 -7.109375 C 5.203125 -7.109375 6.085938 -6.789062 6.765625 -6.15625 C 7.453125 -5.519531 7.796875 -4.613281 7.796875 -3.4375 C 7.796875 -3.28125 7.796875 -3.175781 7.796875 -3.125 Z M 2.859375 -4.4375 L 5.46875 -4.4375 C 5.414062 -4.800781 5.273438 -5.078125 5.046875 -5.265625 C 4.816406 -5.460938 4.523438 -5.5625 4.171875 -5.5625 C 3.773438 -5.5625 3.457031 -5.457031 3.21875 -5.25 C 2.988281 -5.039062 2.867188 -4.769531 2.859375 -4.4375 Z M 2.859375 -4.4375 "/></g></g></g><g fill="#000000" fill-opacity="1"><g transform="translate(59.267797, 116.662604)"><g><path d="M 3.8125 -7.109375 C 4.207031 -7.109375 4.597656 -7.0625 4.984375 -6.96875 C 5.367188 -6.875 5.65625 -6.785156 5.84375 -6.703125 L 6.125 -6.5625 L 5.34375 -5 C 4.800781 -5.289062 4.289062 -5.4375 3.8125 -5.4375 C 3.539062 -5.4375 3.347656 -5.40625 3.234375 -5.34375 C 3.117188 -5.289062 3.0625 -5.179688 3.0625 -5.015625 C 3.0625 -4.984375 3.066406 -4.945312 3.078125 -4.90625 C 3.085938 -4.875 3.101562 -4.84375 3.125 -4.8125 C 3.15625 -4.78125 3.179688 -4.75 3.203125 -4.71875 C 3.222656 -4.695312 3.257812 -4.671875 3.3125 -4.640625 C 3.375 -4.617188 3.421875 -4.601562 3.453125 -4.59375 C 3.484375 -4.582031 3.535156 -4.5625 3.609375 -4.53125 C 3.679688 -4.507812 3.734375 -4.488281 3.765625 -4.46875 C 3.804688 -4.457031 3.867188 -4.4375 3.953125 -4.40625 C 4.035156 -4.382812 4.097656 -4.367188 4.140625 -4.359375 C 4.421875 -4.273438 4.660156 -4.179688 4.859375 -4.078125 C 5.066406 -3.984375 5.285156 -3.851562 5.515625 -3.6875 C 5.742188 -3.519531 5.921875 -3.304688 6.046875 -3.046875 C 6.179688 -2.785156 6.25 -2.488281 6.25 -2.15625 C 6.25 -0.582031 5.15625 0.203125 2.96875 0.203125 C 2.476562 0.203125 2.007812 0.128906 1.5625 -0.015625 C 1.125 -0.171875 0.804688 -0.328125 0.609375 -0.484375 L 0.3125 -0.71875 L 1.28125 -2.359375 C 1.351562 -2.296875 1.445312 -2.21875 1.5625 -2.125 C 1.675781 -2.039062 1.882812 -1.925781 2.1875 -1.78125 C 2.5 -1.632812 2.765625 -1.5625 2.984375 -1.5625 C 3.472656 -1.5625 3.71875 -1.726562 3.71875 -2.0625 C 3.71875 -2.207031 3.65625 -2.320312 3.53125 -2.40625 C 3.40625 -2.5 3.191406 -2.597656 2.890625 -2.703125 C 2.597656 -2.804688 2.363281 -2.90625 2.1875 -3 C 1.757812 -3.226562 1.421875 -3.484375 1.171875 -3.765625 C 0.921875 -4.046875 0.796875 -4.421875 0.796875 -4.890625 C 0.796875 -5.585938 1.066406 -6.128906 1.609375 -6.515625 C 2.148438 -6.910156 2.882812 -7.109375 3.8125 -7.109375 Z M 3.8125 -7.109375 "/></g></g></g><g fill="#000000" fill-opacity="1"><g transform="translate(64.625289, 116.662604)"><g><path d="M 1.03125 -10.75 C 1.3125 -11.03125 1.644531 -11.171875 2.03125 -11.171875 C 2.414062 -11.171875 2.742188 -11.03125 3.015625 -10.75 C 3.296875 -10.46875 3.4375 -10.132812 3.4375 -9.75 C 3.4375 -9.363281 3.296875 -9.03125 3.015625 -8.75 C 2.742188 -8.476562 2.414062 -8.34375 2.03125 -8.34375 C 1.644531 -8.34375 1.3125 -8.476562 1.03125 -8.75 C 0.757812 -9.03125 0.625 -9.363281 0.625 -9.75 C 0.625 -10.132812 0.757812 -10.46875 1.03125 -10.75 Z M 0.8125 -6.90625 L 0.8125 0 L 3.1875 0 L 3.1875 -6.90625 Z M 0.8125 -6.90625 "/></g></g></g><g fill="#000000" fill-opacity="1"><g transform="translate(67.425188, 116.662604)"><g><path d="M 0.5 1.6875 L 2.453125 0.734375 C 2.804688 1.328125 3.425781 1.625 4.3125 1.625 C 4.726562 1.625 5.113281 1.488281 5.46875 1.21875 C 5.820312 0.957031 6 0.554688 6 0.015625 L 6 -0.5 C 5.582031 -0.03125 4.828125 0.203125 3.734375 0.203125 C 2.742188 0.203125 1.925781 -0.144531 1.28125 -0.84375 C 0.632812 -1.550781 0.3125 -2.414062 0.3125 -3.4375 C 0.3125 -4.46875 0.632812 -5.335938 1.28125 -6.046875 C 1.925781 -6.753906 2.742188 -7.109375 3.734375 -7.109375 C 4.628906 -7.109375 5.367188 -6.832031 5.953125 -6.28125 L 6 -6.28125 L 6 -6.90625 L 8.375 -6.90625 L 8.375 0.1875 C 8.375 1.3125 8 2.175781 7.25 2.78125 C 6.507812 3.394531 5.53125 3.703125 4.3125 3.703125 C 2.34375 3.703125 1.070312 3.03125 0.5 1.6875 Z M 3.296875 -4.609375 C 2.992188 -4.304688 2.84375 -3.914062 2.84375 -3.4375 C 2.84375 -2.96875 2.988281 -2.582031 3.28125 -2.28125 C 3.570312 -1.976562 3.960938 -1.828125 4.453125 -1.828125 C 4.921875 -1.828125 5.300781 -1.976562 5.59375 -2.28125 C 5.894531 -2.59375 6.046875 -2.976562 6.046875 -3.4375 C 6.046875 -3.914062 5.890625 -4.304688 5.578125 -4.609375 C 5.273438 -4.921875 4.898438 -5.078125 4.453125 -5.078125 C 3.992188 -5.078125 3.609375 -4.921875 3.296875 -4.609375 Z M 3.296875 -4.609375 "/></g></g></g><g fill="#000000" fill-opacity="1"><g transform="translate(75.353744, 116.662604)"><g><path d="M 0.8125 0 L 0.8125 -6.90625 L 3.1875 -6.90625 L 3.1875 -6.171875 L 3.21875 -6.171875 C 3.832031 -6.796875 4.488281 -7.109375 5.1875 -7.109375 C 5.53125 -7.109375 5.867188 -7.0625 6.203125 -6.96875 C 6.546875 -6.875 6.867188 -6.734375 7.171875 -6.546875 C 7.484375 -6.359375 7.734375 -6.09375 7.921875 -5.75 C 8.117188 -5.40625 8.21875 -5.003906 8.21875 -4.546875 L 8.21875 0 L 5.84375 0 L 5.84375 -3.90625 C 5.84375 -4.257812 5.726562 -4.570312 5.5 -4.84375 C 5.269531 -5.113281 4.96875 -5.25 4.59375 -5.25 C 4.238281 -5.25 3.914062 -5.109375 3.625 -4.828125 C 3.332031 -4.546875 3.1875 -4.238281 3.1875 -3.90625 L 3.1875 0 Z M 0.8125 0 "/></g></g></g><g fill="#000000" fill-opacity="1"><g transform="translate(82.98615, 116.662604)"><g><path d="M 1.03125 -10.75 C 1.3125 -11.03125 1.644531 -11.171875 2.03125 -11.171875 C 2.414062 -11.171875 2.742188 -11.03125 3.015625 -10.75 C 3.296875 -10.46875 3.4375 -10.132812 3.4375 -9.75 C 3.4375 -9.363281 3.296875 -9.03125 3.015625 -8.75 C 2.742188 -8.476562 2.414062 -8.34375 2.03125 -8.34375 C 1.644531 -8.34375 1.3125 -8.476562 1.03125 -8.75 C 0.757812 -9.03125 0.625 -9.363281 0.625 -9.75 C 0.625 -10.132812 0.757812 -10.46875 1.03125 -10.75 Z M 0.8125 -6.90625 L 0.8125 0 L 3.1875 0 L 3.1875 -6.90625 Z M 0.8125 -6.90625 "/></g></g></g><g fill="#000000" fill-opacity="1"><g transform="translate(85.786052, 116.662604)"><g><path d="M 0.8125 0 L 0.8125 -6.90625 L 3.1875 -6.90625 L 3.1875 -6.171875 L 3.21875 -6.171875 C 3.832031 -6.796875 4.488281 -7.109375 5.1875 -7.109375 C 5.53125 -7.109375 5.867188 -7.0625 6.203125 -6.96875 C 6.546875 -6.875 6.867188 -6.734375 7.171875 -6.546875 C 7.484375 -6.359375 7.734375 -6.09375 7.921875 -5.75 C 8.117188 -5.40625 8.21875 -5.003906 8.21875 -4.546875 L 8.21875 0 L 5.84375 0 L 5.84375 -3.90625 C 5.84375 -4.257812 5.726562 -4.570312 5.5 -4.84375 C 5.269531 -5.113281 4.96875 -5.25 4.59375 -5.25 C 4.238281 -5.25 3.914062 -5.109375 3.625 -4.828125 C 3.332031 -4.546875 3.1875 -4.238281 3.1875 -3.90625 L 3.1875 0 Z M 0.8125 0 "/></g></g></g><g fill="#000000" fill-opacity="1"><g transform="translate(93.418456, 116.662604)"><g><path d="M 0.5 1.6875 L 2.453125 0.734375 C 2.804688 1.328125 3.425781 1.625 4.3125 1.625 C 4.726562 1.625 5.113281 1.488281 5.46875 1.21875 C 5.820312 0.957031 6 0.554688 6 0.015625 L 6 -0.5 C 5.582031 -0.03125 4.828125 0.203125 3.734375 0.203125 C 2.742188 0.203125 1.925781 -0.144531 1.28125 -0.84375 C 0.632812 -1.550781 0.3125 -2.414062 0.3125 -3.4375 C 0.3125 -4.46875 0.632812 -5.335938 1.28125 -6.046875 C 1.925781 -6.753906 2.742188 -7.109375 3.734375 -7.109375 C 4.628906 -7.109375 5.367188 -6.832031 5.953125 -6.28125 L 6 -6.28125 L 6 -6.90625 L 8.375 -6.90625 L 8.375 0.1875 C 8.375 1.3125 8 2.175781 7.25 2.78125 C 6.507812 3.394531 5.53125 3.703125 4.3125 3.703125 C 2.34375 3.703125 1.070312 3.03125 0.5 1.6875 Z M 3.296875 -4.609375 C 2.992188 -4.304688 2.84375 -3.914062 2.84375 -3.4375 C 2.84375 -2.96875 2.988281 -2.582031 3.28125 -2.28125 C 3.570312 -1.976562 3.960938 -1.828125 4.453125 -1.828125 C 4.921875 -1.828125 5.300781 -1.976562 5.59375 -2.28125 C 5.894531 -2.59375 6.046875 -2.976562 6.046875 -3.4375 C 6.046875 -3.914062 5.890625 -4.304688 5.578125 -4.609375 C 5.273438 -4.921875 4.898438 -5.078125 4.453125 -5.078125 C 3.992188 -5.078125 3.609375 -4.921875 3.296875 -4.609375 Z M 3.296875 -4.609375 "/></g></g></g><g fill="#000000" fill-opacity="1"><g transform="translate(101.347013, 116.662604)"><g/></g></g><g fill="#000000" fill-opacity="1"><g transform="translate(103.75654, 116.662604)"><g><path d="M 1.203125 -6.90625 L 1.203125 -9.46875 L 3.59375 -9.46875 L 3.59375 -6.90625 L 5.046875 -6.90625 L 5.046875 -5.078125 L 3.59375 -5.078125 L 3.59375 -2.890625 C 3.59375 -2.253906 3.769531 -1.9375 4.125 -1.9375 C 4.21875 -1.9375 4.3125 -1.953125 4.40625 -1.984375 C 4.507812 -2.023438 4.585938 -2.0625 4.640625 -2.09375 L 4.71875 -2.15625 L 5.3125 -0.234375 C 4.800781 0.0546875 4.21875 0.203125 3.5625 0.203125 C 3.113281 0.203125 2.726562 0.125 2.40625 -0.03125 C 2.082031 -0.1875 1.835938 -0.394531 1.671875 -0.65625 C 1.503906 -0.925781 1.382812 -1.207031 1.3125 -1.5 C 1.238281 -1.789062 1.203125 -2.101562 1.203125 -2.4375 L 1.203125 -5.078125 L 0.21875 -5.078125 L 0.21875 -6.90625 Z M 1.203125 -6.90625 "/></g></g></g><g fill="#000000" fill-opacity="1"><g transform="translate(107.808322, 116.662604)"><g><path d="M 1.453125 -0.8125 C 0.691406 -1.5 0.3125 -2.375 0.3125 -3.4375 C 0.3125 -4.507812 0.707031 -5.390625 1.5 -6.078125 C 2.300781 -6.765625 3.289062 -7.109375 4.46875 -7.109375 C 5.625 -7.109375 6.597656 -6.757812 7.390625 -6.0625 C 8.179688 -5.375 8.578125 -4.5 8.578125 -3.4375 C 8.578125 -2.382812 8.1875 -1.515625 7.40625 -0.828125 C 6.632812 -0.140625 5.65625 0.203125 4.46875 0.203125 C 3.226562 0.203125 2.222656 -0.132812 1.453125 -0.8125 Z M 3.296875 -4.609375 C 2.992188 -4.304688 2.84375 -3.914062 2.84375 -3.4375 C 2.84375 -2.96875 2.988281 -2.582031 3.28125 -2.28125 C 3.570312 -1.976562 3.960938 -1.828125 4.453125 -1.828125 C 4.921875 -1.828125 5.300781 -1.976562 5.59375 -2.28125 C 5.894531 -2.59375 6.046875 -2.976562 6.046875 -3.4375 C 6.046875 -3.914062 5.890625 -4.304688 5.578125 -4.609375 C 5.273438 -4.921875 4.898438 -5.078125 4.453125 -5.078125 C 3.992188 -5.078125 3.609375 -4.921875 3.296875 -4.609375 Z M 3.296875 -4.609375 "/></g></g></g><g fill="#000000" fill-opacity="1"><g transform="translate(115.440731, 116.662604)"><g><path d="M 0.8125 0 L 0.8125 -6.90625 L 3.1875 -6.90625 L 3.1875 -6.171875 L 3.21875 -6.171875 C 3.832031 -6.796875 4.488281 -7.109375 5.1875 -7.109375 C 5.695312 -7.109375 6.171875 -7.003906 6.609375 -6.796875 C 7.046875 -6.585938 7.375 -6.269531 7.59375 -5.84375 C 8.300781 -6.6875 9.066406 -7.109375 9.890625 -7.109375 C 10.617188 -7.109375 11.25 -6.898438 11.78125 -6.484375 C 12.3125 -6.066406 12.578125 -5.421875 12.578125 -4.546875 L 12.578125 0 L 10.203125 0 L 10.203125 -3.90625 C 10.203125 -4.269531 10.097656 -4.570312 9.890625 -4.8125 C 9.691406 -5.0625 9.390625 -5.1875 8.984375 -5.1875 C 8.640625 -5.1875 8.375 -5.082031 8.1875 -4.875 C 8 -4.664062 7.898438 -4.410156 7.890625 -4.109375 L 7.890625 0 L 5.5 0 L 5.5 -3.90625 C 5.5 -4.269531 5.394531 -4.570312 5.1875 -4.8125 C 4.988281 -5.0625 4.691406 -5.1875 4.296875 -5.1875 C 3.921875 -5.1875 3.640625 -5.070312 3.453125 -4.84375 C 3.273438 -4.613281 3.1875 -4.34375 3.1875 -4.03125 L 3.1875 0 Z M 0.8125 0 "/></g></g></g><g fill="#000000" fill-opacity="1"><g transform="translate(127.434516, 116.662604)"><g><path d="M 1.453125 -0.8125 C 0.691406 -1.5 0.3125 -2.375 0.3125 -3.4375 C 0.3125 -4.507812 0.707031 -5.390625 1.5 -6.078125 C 2.300781 -6.765625 3.289062 -7.109375 4.46875 -7.109375 C 5.625 -7.109375 6.597656 -6.757812 7.390625 -6.0625 C 8.179688 -5.375 8.578125 -4.5 8.578125 -3.4375 C 8.578125 -2.382812 8.1875 -1.515625 7.40625 -0.828125 C 6.632812 -0.140625 5.65625 0.203125 4.46875 0.203125 C 3.226562 0.203125 2.222656 -0.132812 1.453125 -0.8125 Z M 3.296875 -4.609375 C 2.992188 -4.304688 2.84375 -3.914062 2.84375 -3.4375 C 2.84375 -2.96875 2.988281 -2.582031 3.28125 -2.28125 C 3.570312 -1.976562 3.960938 -1.828125 4.453125 -1.828125 C 4.921875 -1.828125 5.300781 -1.976562 5.59375 -2.28125 C 5.894531 -2.59375 6.046875 -2.976562 6.046875 -3.4375 C 6.046875 -3.914062 5.890625 -4.304688 5.578125 -4.609375 C 5.273438 -4.921875 4.898438 -5.078125 4.453125 -5.078125 C 3.992188 -5.078125 3.609375 -4.921875 3.296875 -4.609375 Z M 3.296875 -4.609375 "/></g></g></g><g fill="#000000" fill-opacity="1"><g transform="translate(135.066924, 116.662604)"><g><path d="M 0.8125 0 L 0.8125 -6.90625 L 3.1875 -6.90625 L 3.1875 -5.90625 L 3.21875 -5.90625 C 3.226562 -5.9375 3.253906 -5.976562 3.296875 -6.03125 C 3.335938 -6.09375 3.425781 -6.191406 3.5625 -6.328125 C 3.695312 -6.460938 3.835938 -6.582031 3.984375 -6.6875 C 4.140625 -6.789062 4.335938 -6.882812 4.578125 -6.96875 C 4.828125 -7.0625 5.078125 -7.109375 5.328125 -7.109375 C 5.585938 -7.109375 5.84375 -7.070312 6.09375 -7 C 6.34375 -6.925781 6.523438 -6.851562 6.640625 -6.78125 L 6.828125 -6.671875 L 5.84375 -4.65625 C 5.539062 -4.90625 5.125 -5.03125 4.59375 -5.03125 C 4.3125 -5.03125 4.066406 -4.96875 3.859375 -4.84375 C 3.648438 -4.71875 3.503906 -4.5625 3.421875 -4.375 C 3.335938 -4.195312 3.273438 -4.046875 3.234375 -3.921875 C 3.203125 -3.796875 3.1875 -3.695312 3.1875 -3.625 L 3.1875 0 Z M 0.8125 0 "/></g></g></g><g fill="#000000" fill-opacity="1"><g transform="translate(140.505191, 116.662604)"><g><path d="M 0.8125 0 L 0.8125 -6.90625 L 3.1875 -6.90625 L 3.1875 -5.90625 L 3.21875 -5.90625 C 3.226562 -5.9375 3.253906 -5.976562 3.296875 -6.03125 C 3.335938 -6.09375 3.425781 -6.191406 3.5625 -6.328125 C 3.695312 -6.460938 3.835938 -6.582031 3.984375 -6.6875 C 4.140625 -6.789062 4.335938 -6.882812 4.578125 -6.96875 C 4.828125 -7.0625 5.078125 -7.109375 5.328125 -7.109375 C 5.585938 -7.109375 5.84375 -7.070312 6.09375 -7 C 6.34375 -6.925781 6.523438 -6.851562 6.640625 -6.78125 L 6.828125 -6.671875 L 5.84375 -4.65625 C 5.539062 -4.90625 5.125 -5.03125 4.59375 -5.03125 C 4.3125 -5.03125 4.066406 -4.96875 3.859375 -4.84375 C 3.648438 -4.71875 3.503906 -4.5625 3.421875 -4.375 C 3.335938 -4.195312 3.273438 -4.046875 3.234375 -3.921875 C 3.203125 -3.796875 3.1875 -3.695312 3.1875 -3.625 L 3.1875 0 Z M 0.8125 0 "/></g></g></g><g fill="#000000" fill-opacity="1"><g transform="translate(145.943458, 116.662604)"><g><path d="M 1.453125 -0.8125 C 0.691406 -1.5 0.3125 -2.375 0.3125 -3.4375 C 0.3125 -4.507812 0.707031 -5.390625 1.5 -6.078125 C 2.300781 -6.765625 3.289062 -7.109375 4.46875 -7.109375 C 5.625 -7.109375 6.597656 -6.757812 7.390625 -6.0625 C 8.179688 -5.375 8.578125 -4.5 8.578125 -3.4375 C 8.578125 -2.382812 8.1875 -1.515625 7.40625 -0.828125 C 6.632812 -0.140625 5.65625 0.203125 4.46875 0.203125 C 3.226562 0.203125 2.222656 -0.132812 1.453125 -0.8125 Z M 3.296875 -4.609375 C 2.992188 -4.304688 2.84375 -3.914062 2.84375 -3.4375 C 2.84375 -2.96875 2.988281 -2.582031 3.28125 -2.28125 C 3.570312 -1.976562 3.960938 -1.828125 4.453125 -1.828125 C 4.921875 -1.828125 5.300781 -1.976562 5.59375 -2.28125 C 5.894531 -2.59375 6.046875 -2.976562 6.046875 -3.4375 C 6.046875 -3.914062 5.890625 -4.304688 5.578125 -4.609375 C 5.273438 -4.921875 4.898438 -5.078125 4.453125 -5.078125 C 3.992188 -5.078125 3.609375 -4.921875 3.296875 -4.609375 Z M 3.296875 -4.609375 "/></g></g></g><g fill="#000000" fill-opacity="1"><g transform="translate(153.575866, 116.662604)"><g><path d="M 5.046875 0 L 3.4375 0 L -0.265625 -6.90625 L 2.46875 -6.90625 L 4.15625 -3.171875 L 5.8125 -6.90625 L 7.453125 -6.90625 L 9.109375 -3.171875 L 10.796875 -6.90625 L 13.53125 -6.90625 L 9.828125 0 L 8.21875 0 L 6.625 -3.5625 Z M 5.046875 0 "/></g></g></g><g fill="#000000" fill-opacity="1"><g transform="translate(165.583105, 116.662604)"><g><path d="M 2.34375 -2.875 C 2.769531 -2.875 3.132812 -2.722656 3.4375 -2.421875 C 3.738281 -2.128906 3.890625 -1.765625 3.890625 -1.328125 C 3.890625 -0.00390625 3.132812 1.28125 1.625 2.53125 L 0.9375 1.96875 C 1 1.914062 1.078125 1.832031 1.171875 1.71875 C 1.265625 1.613281 1.40625 1.394531 1.59375 1.0625 C 1.78125 0.738281 1.90625 0.410156 1.96875 0.078125 C 1.625 -0.00390625 1.34375 -0.171875 1.125 -0.421875 C 0.914062 -0.679688 0.8125 -0.984375 0.8125 -1.328125 C 0.8125 -1.765625 0.957031 -2.128906 1.25 -2.421875 C 1.550781 -2.722656 1.914062 -2.875 2.34375 -2.875 Z M 2.34375 -2.875 "/></g></g></g><g fill="#000000" fill-opacity="1"><g transform="translate(169.015682, 116.662604)"><g/></g></g><g fill="#000000" fill-opacity="1"><g transform="translate(171.425209, 116.662604)"><g><path d="M 1.203125 -6.90625 L 1.203125 -9.46875 L 3.59375 -9.46875 L 3.59375 -6.90625 L 5.046875 -6.90625 L 5.046875 -5.078125 L 3.59375 -5.078125 L 3.59375 -2.890625 C 3.59375 -2.253906 3.769531 -1.9375 4.125 -1.9375 C 4.21875 -1.9375 4.3125 -1.953125 4.40625 -1.984375 C 4.507812 -2.023438 4.585938 -2.0625 4.640625 -2.09375 L 4.71875 -2.15625 L 5.3125 -0.234375 C 4.800781 0.0546875 4.21875 0.203125 3.5625 0.203125 C 3.113281 0.203125 2.726562 0.125 2.40625 -0.03125 C 2.082031 -0.1875 1.835938 -0.394531 1.671875 -0.65625 C 1.503906 -0.925781 1.382812 -1.207031 1.3125 -1.5 C 1.238281 -1.789062 1.203125 -2.101562 1.203125 -2.4375 L 1.203125 -5.078125 L 0.21875 -5.078125 L 0.21875 -6.90625 Z M 1.203125 -6.90625 "/></g></g></g><g fill="#000000" fill-opacity="1"><g transform="translate(175.476991, 116.662604)"><g><path d="M 1.453125 -0.8125 C 0.691406 -1.5 0.3125 -2.375 0.3125 -3.4375 C 0.3125 -4.507812 0.707031 -5.390625 1.5 -6.078125 C 2.300781 -6.765625 3.289062 -7.109375 4.46875 -7.109375 C 5.625 -7.109375 6.597656 -6.757812 7.390625 -6.0625 C 8.179688 -5.375 8.578125 -4.5 8.578125 -3.4375 C 8.578125 -2.382812 8.1875 -1.515625 7.40625 -0.828125 C 6.632812 -0.140625 5.65625 0.203125 4.46875 0.203125 C 3.226562 0.203125 2.222656 -0.132812 1.453125 -0.8125 Z M 3.296875 -4.609375 C 2.992188 -4.304688 2.84375 -3.914062 2.84375 -3.4375 C 2.84375 -2.96875 2.988281 -2.582031 3.28125 -2.28125 C 3.570312 -1.976562 3.960938 -1.828125 4.453125 -1.828125 C 4.921875 -1.828125 5.300781 -1.976562 5.59375 -2.28125 C 5.894531 -2.59375 6.046875 -2.976562 6.046875 -3.4375 C 6.046875 -3.914062 5.890625 -4.304688 5.578125 -4.609375 C 5.273438 -4.921875 4.898438 -5.078125 4.453125 -5.078125 C 3.992188 -5.078125 3.609375 -4.921875 3.296875 -4.609375 Z M 3.296875 -4.609375 "/></g></g></g><g fill="#000000" fill-opacity="1"><g transform="translate(183.1094, 116.662604)"><g><path d="M 1.28125 -0.84375 C 0.632812 -1.550781 0.3125 -2.414062 0.3125 -3.4375 C 0.3125 -4.46875 0.632812 -5.335938 1.28125 -6.046875 C 1.925781 -6.753906 2.742188 -7.109375 3.734375 -7.109375 C 4.648438 -7.109375 5.40625 -6.820312 6 -6.25 L 6 -11.5625 L 8.375 -11.5625 L 8.375 0 L 6.03125 0 L 6.03125 -0.78125 L 6 -0.78125 C 5.40625 -0.125 4.648438 0.203125 3.734375 0.203125 C 2.742188 0.203125 1.925781 -0.144531 1.28125 -0.84375 Z M 3.296875 -4.609375 C 2.992188 -4.304688 2.84375 -3.914062 2.84375 -3.4375 C 2.84375 -2.96875 2.988281 -2.582031 3.28125 -2.28125 C 3.570312 -1.976562 3.960938 -1.828125 4.453125 -1.828125 C 4.921875 -1.828125 5.300781 -1.976562 5.59375 -2.28125 C 5.894531 -2.59375 6.046875 -2.976562 6.046875 -3.4375 C 6.046875 -3.914062 5.890625 -4.304688 5.578125 -4.609375 C 5.273438 -4.921875 4.898438 -5.078125 4.453125 -5.078125 C 3.992188 -5.078125 3.609375 -4.921875 3.296875 -4.609375 Z M 3.296875 -4.609375 "/></g></g></g><g fill="#000000" fill-opacity="1"><g transform="translate(191.037948, 116.662604)"><g><path d="M 1.28125 -0.84375 C 0.632812 -1.550781 0.3125 -2.414062 0.3125 -3.4375 C 0.3125 -4.46875 0.632812 -5.335938 1.28125 -6.046875 C 1.925781 -6.753906 2.742188 -7.109375 3.734375 -7.109375 C 4.648438 -7.109375 5.40625 -6.820312 6 -6.25 L 6 -6.90625 L 8.375 -6.90625 L 8.375 0 L 6.03125 0 L 6.03125 -0.78125 L 6 -0.78125 C 5.40625 -0.125 4.648438 0.203125 3.734375 0.203125 C 2.742188 0.203125 1.925781 -0.144531 1.28125 -0.84375 Z M 3.296875 -4.609375 C 2.992188 -4.304688 2.84375 -3.914062 2.84375 -3.4375 C 2.84375 -2.96875 2.988281 -2.582031 3.28125 -2.28125 C 3.570312 -1.976562 3.960938 -1.828125 4.453125 -1.828125 C 4.921875 -1.828125 5.300781 -1.976562 5.59375 -2.28125 C 5.894531 -2.59375 6.046875 -2.976562 6.046875 -3.4375 C 6.046875 -3.914062 5.890625 -4.304688 5.578125 -4.609375 C 5.273438 -4.921875 4.898438 -5.078125 4.453125 -5.078125 C 3.992188 -5.078125 3.609375 -4.921875 3.296875 -4.609375 Z M 3.296875 -4.609375 "/></g></g></g><g fill="#000000" fill-opacity="1"><g transform="translate(198.966497, 116.662604)"><g><path d="M 6.046875 -6.90625 L 8.78125 -6.90625 L 3.359375 3.5 L 0.625 3.5 L 3 -1.078125 L -0.265625 -6.90625 L 2.46875 -6.90625 L 4.40625 -3.359375 Z M 6.046875 -6.90625 "/></g></g></g><path fill="#ffde59" d="M 147.484375 19.929688 L 152.53125 19.929688 C 154.015625 19.929688 155.441406 20.519531 156.492188 21.570312 C 157.542969 22.621094 158.136719 24.046875 158.136719 25.535156 L 158.136719 36.742188 C 158.136719 38.230469 157.542969 39.65625 156.492188 40.707031 C 155.441406 41.757812 154.015625 42.347656 152.53125 42.347656 L 147.484375 42.347656 C 144.386719 42.347656 141.878906 39.839844 141.878906 36.742188 L 141.878906 25.535156 C 141.878906 22.4375 144.386719 19.929688 147.484375 19.929688 Z M 147.484375 19.929688 " fill-opacity="1" fill-rule="nonzero"/><g fill="#000000" fill-opacity="1"><g transform="translate(145.926922, 37.001072)"><g><path d="M 4.296875 -6.921875 C 4.890625 -6.921875 5.421875 -6.769531 5.890625 -6.46875 C 6.367188 -6.175781 6.742188 -5.773438 7.015625 -5.265625 C 7.285156 -4.753906 7.421875 -4.179688 7.421875 -3.546875 C 7.421875 -2.804688 7.25 -2.15625 6.90625 -1.59375 C 6.5625 -1.03125 6.085938 -0.597656 5.484375 -0.296875 C 4.878906 0.00390625 4.1875 0.15625 3.40625 0.15625 C 2.988281 0.15625 2.582031 0.0976562 2.1875 -0.015625 C 1.800781 -0.128906 1.46875 -0.296875 1.1875 -0.515625 C 0.90625 -0.671875 0.765625 -0.882812 0.765625 -1.15625 C 0.765625 -1.351562 0.832031 -1.535156 0.96875 -1.703125 C 1.113281 -1.867188 1.285156 -1.953125 1.484375 -1.953125 C 1.671875 -1.953125 1.859375 -1.882812 2.046875 -1.75 C 2.472656 -1.351562 3.007812 -1.15625 3.65625 -1.15625 C 4.0625 -1.15625 4.4375 -1.25 4.78125 -1.4375 C 5.132812 -1.625 5.414062 -1.890625 5.625 -2.234375 C 5.832031 -2.585938 5.9375 -2.992188 5.9375 -3.453125 C 5.9375 -4.128906 5.726562 -4.648438 5.3125 -5.015625 C 4.894531 -5.378906 4.394531 -5.5625 3.8125 -5.5625 C 3.644531 -5.5625 3.40625 -5.523438 3.09375 -5.453125 C 2.863281 -5.390625 2.691406 -5.359375 2.578125 -5.359375 C 2.390625 -5.359375 2.238281 -5.421875 2.125 -5.546875 C 2.007812 -5.679688 1.953125 -5.847656 1.953125 -6.046875 C 1.953125 -6.160156 1.972656 -6.257812 2.015625 -6.34375 C 2.054688 -6.425781 2.125 -6.523438 2.21875 -6.640625 L 4.875 -9.578125 L 1.265625 -9.578125 C 1.066406 -9.578125 0.898438 -9.644531 0.765625 -9.78125 C 0.628906 -9.914062 0.5625 -10.082031 0.5625 -10.28125 C 0.5625 -10.476562 0.628906 -10.640625 0.765625 -10.765625 C 0.898438 -10.890625 1.066406 -10.953125 1.265625 -10.953125 L 6.25 -10.953125 C 6.488281 -10.953125 6.675781 -10.878906 6.8125 -10.734375 C 6.945312 -10.585938 7.015625 -10.410156 7.015625 -10.203125 C 7.015625 -10.015625 6.914062 -9.820312 6.71875 -9.625 Z M 4.296875 -6.921875 "/></g></g></g></svg>