<svg xmlns="http://www.w3.org/2000/svg" xmlns:xlink="http://www.w3.org/1999/xlink" width="336" zoomAndPan="magnify" viewBox="0 0 252 143.999998" height="192" preserveAspectRatio="xMidYMid meet" version="1.0"><defs><g/><clipPath id="4135304ae5"><path d="M 50.675781 1.664062 L 201.75 1.664062 L 201.75 143.058594 L 50.675781 143.058594 Z M 50.675781 1.664062 " clip-rule="nonzero"/></clipPath><clipPath id="c2e1205423"><path d="M 139.027344 128.269531 L 194.40625 128.269531 L 194.40625 140.40625 L 139.027344 140.40625 Z M 139.027344 128.269531 " clip-rule="nonzero"/></clipPath></defs><g clip-path="url(#4135304ae5)"><path fill="#000000" d="M 50.675781 1.664062 L 202.011719 1.664062 L 202.011719 143.058594 L 50.675781 143.058594 Z M 50.675781 1.664062 " fill-opacity="1" fill-rule="nonzero"/></g><g fill="#ffde59" fill-opacity="1"><g transform="translate(50.867461, 136.823271)"><g><path d="M 7.296875 -100.25 L 36.328125 -100.25 C 50.265625 -100.25 62.175781 -95.488281 72.0625 -85.96875 C 81.945312 -76.445312 86.890625 -64.519531 86.890625 -50.1875 C 86.890625 -35.769531 81.96875 -23.800781 72.125 -14.28125 C 62.28125 -4.757812 50.347656 0 36.328125 0 L 7.296875 0 Z M 30.140625 -20.421875 L 33.65625 -20.421875 C 42 -20.421875 48.820312 -23.234375 54.125 -28.859375 C 59.4375 -34.492188 62.132812 -41.5625 62.21875 -50.0625 C 62.21875 -58.570312 59.5625 -65.660156 54.25 -71.328125 C 48.945312 -76.992188 42.082031 -79.828125 33.65625 -79.828125 L 30.140625 -79.828125 Z M 30.140625 -20.421875 "/></g></g></g><g fill="#ffde59" fill-opacity="1"><g transform="translate(137.131201, 125.653429)"><g><path d="M 18.234375 -52.203125 L 5.0625 -58.609375 C 5.1875 -59.023438 5.363281 -59.601562 5.59375 -60.34375 C 5.832031 -61.082031 6.546875 -62.367188 7.734375 -64.203125 C 8.921875 -66.046875 10.3125 -67.675781 11.90625 -69.09375 C 13.507812 -70.519531 15.851562 -71.8125 18.9375 -72.96875 C 22.019531 -74.125 25.488281 -74.703125 29.34375 -74.703125 C 36.34375 -74.703125 42.109375 -72.703125 46.640625 -68.703125 C 51.179688 -64.703125 53.453125 -59.585938 53.453125 -53.359375 C 53.453125 -47.546875 51.285156 -42.953125 46.953125 -39.578125 C 53.179688 -35.785156 56.296875 -30.179688 56.296875 -22.765625 C 56.296875 -15.765625 53.726562 -10 48.59375 -5.46875 C 43.46875 -0.9375 36.960938 1.328125 29.078125 1.328125 C 24.867188 1.328125 21.046875 0.707031 17.609375 -0.53125 C 14.171875 -1.78125 11.488281 -3.28125 9.5625 -5.03125 C 7.632812 -6.78125 6.03125 -8.539062 4.75 -10.3125 C 3.476562 -12.09375 2.609375 -13.609375 2.140625 -14.859375 L 1.515625 -16.71875 L 16.984375 -24.28125 C 16.984375 -23.976562 17.023438 -23.578125 17.109375 -23.078125 C 17.203125 -22.578125 17.515625 -21.671875 18.046875 -20.359375 C 18.585938 -19.054688 19.242188 -17.914062 20.015625 -16.9375 C 20.785156 -15.957031 21.953125 -15.066406 23.515625 -14.265625 C 25.085938 -13.472656 26.914062 -13.078125 29 -13.078125 C 32.132812 -13.078125 34.679688 -13.9375 36.640625 -15.65625 C 38.597656 -17.375 39.578125 -19.742188 39.578125 -22.765625 C 39.578125 -25.910156 38.550781 -28.488281 36.5 -30.5 C 34.457031 -32.519531 31.957031 -33.53125 29 -33.53125 L 25.796875 -33 L 25.796875 -43.9375 L 29.4375 -43.9375 C 31.75 -43.9375 33.796875 -44.820312 35.578125 -46.59375 C 37.359375 -48.375 38.25 -50.570312 38.25 -53.1875 C 38.25 -55.5 37.34375 -57.425781 35.53125 -58.96875 C 33.71875 -60.507812 31.597656 -61.28125 29.171875 -61.28125 C 27.453125 -61.28125 25.894531 -60.96875 24.5 -60.34375 C 23.101562 -59.71875 22.035156 -58.957031 21.296875 -58.0625 C 20.554688 -57.175781 19.929688 -56.289062 19.421875 -55.40625 C 18.921875 -54.519531 18.613281 -53.78125 18.5 -53.1875 Z M 18.234375 -52.203125 "/></g></g></g><g clip-path="url(#c2e1205423)"><path fill="#ffffff" d="M 139.027344 128.269531 L 194.394531 128.269531 L 194.394531 140.40625 L 139.027344 140.40625 Z M 139.027344 128.269531 " fill-opacity="1" fill-rule="nonzero"/></g><path fill="#ffde59" d="M 59.796875 5.148438 L 192.617188 5.148438 L 192.617188 20.800781 L 59.796875 20.800781 L 59.796875 5.148438 " fill-opacity="1" fill-rule="nonzero"/><g fill="#000000" fill-opacity="1"><g transform="translate(65.834817, 14.565684)"><g><path d="M 0.453125 -6.296875 L 2.28125 -6.296875 C 3.15625 -6.296875 3.90625 -6 4.53125 -5.40625 C 5.15625 -4.8125 5.46875 -4.0625 5.46875 -3.15625 C 5.46875 -2.25 5.15625 -1.492188 4.53125 -0.890625 C 3.914062 -0.296875 3.164062 0 2.28125 0 L 0.453125 0 Z M 1.890625 -1.28125 L 2.109375 -1.28125 C 2.640625 -1.28125 3.070312 -1.457031 3.40625 -1.8125 C 3.738281 -2.164062 3.90625 -2.609375 3.90625 -3.140625 C 3.90625 -3.679688 3.738281 -4.128906 3.40625 -4.484375 C 3.070312 -4.835938 2.640625 -5.015625 2.109375 -5.015625 L 1.890625 -5.015625 Z M 1.890625 -1.28125 "/></g></g></g><g fill="#000000" fill-opacity="1"><g transform="translate(71.331916, 14.565684)"><g><path d="M 0.71875 -0.484375 C 0.351562 -0.878906 0.171875 -1.367188 0.171875 -1.953125 C 0.171875 -2.535156 0.351562 -3.023438 0.71875 -3.421875 C 1.09375 -3.828125 1.5625 -4.03125 2.125 -4.03125 C 2.644531 -4.03125 3.070312 -3.867188 3.40625 -3.546875 L 3.40625 -3.921875 L 4.765625 -3.921875 L 4.765625 0 L 3.421875 0 L 3.421875 -0.4375 L 3.40625 -0.4375 C 3.070312 -0.0703125 2.644531 0.109375 2.125 0.109375 C 1.5625 0.109375 1.09375 -0.0859375 0.71875 -0.484375 Z M 1.875 -2.609375 C 1.695312 -2.441406 1.609375 -2.222656 1.609375 -1.953125 C 1.609375 -1.679688 1.691406 -1.460938 1.859375 -1.296875 C 2.023438 -1.128906 2.25 -1.046875 2.53125 -1.046875 C 2.789062 -1.046875 3.003906 -1.128906 3.171875 -1.296875 C 3.347656 -1.472656 3.4375 -1.691406 3.4375 -1.953125 C 3.4375 -2.222656 3.347656 -2.441406 3.171875 -2.609375 C 2.992188 -2.785156 2.78125 -2.875 2.53125 -2.875 C 2.269531 -2.875 2.050781 -2.785156 1.875 -2.609375 Z M 1.875 -2.609375 "/></g></g></g><g fill="#000000" fill-opacity="1"><g transform="translate(76.409098, 14.565684)"><g><path d="M 0.6875 -6.1875 C 0.84375 -6.34375 1.03125 -6.421875 1.25 -6.421875 C 1.46875 -6.421875 1.65625 -6.335938 1.8125 -6.171875 C 1.96875 -6.015625 2.046875 -5.828125 2.046875 -5.609375 C 2.046875 -4.941406 1.660156 -4.285156 0.890625 -3.640625 L 0.53125 -3.921875 C 0.5625 -3.953125 0.597656 -3.992188 0.640625 -4.046875 C 0.691406 -4.097656 0.765625 -4.207031 0.859375 -4.375 C 0.960938 -4.550781 1.023438 -4.722656 1.046875 -4.890625 C 0.878906 -4.929688 0.738281 -5.019531 0.625 -5.15625 C 0.507812 -5.289062 0.453125 -5.441406 0.453125 -5.609375 C 0.453125 -5.835938 0.53125 -6.03125 0.6875 -6.1875 Z M 0.6875 -6.1875 "/></g></g></g><g fill="#000000" fill-opacity="1"><g transform="translate(78.493412, 14.565684)"><g><path d="M 2.4375 0 L -0.21875 -6.296875 L 1.40625 -6.296875 L 3 -2.15625 L 4.578125 -6.296875 L 6.203125 -6.296875 L 3.5625 0 Z M 2.4375 0 "/></g></g></g><g fill="#000000" fill-opacity="1"><g transform="translate(84.341713, 14.565684)"><g><path d="M 0.828125 -0.46875 C 0.390625 -0.851562 0.171875 -1.347656 0.171875 -1.953125 C 0.171875 -2.554688 0.394531 -3.050781 0.84375 -3.4375 C 1.300781 -3.832031 1.863281 -4.03125 2.53125 -4.03125 C 3.1875 -4.03125 3.738281 -3.832031 4.1875 -3.4375 C 4.644531 -3.050781 4.875 -2.554688 4.875 -1.953125 C 4.875 -1.347656 4.648438 -0.851562 4.203125 -0.46875 C 3.765625 -0.0820312 3.207031 0.109375 2.53125 0.109375 C 1.832031 0.109375 1.265625 -0.0820312 0.828125 -0.46875 Z M 1.875 -2.609375 C 1.695312 -2.441406 1.609375 -2.222656 1.609375 -1.953125 C 1.609375 -1.679688 1.691406 -1.460938 1.859375 -1.296875 C 2.023438 -1.128906 2.25 -1.046875 2.53125 -1.046875 C 2.789062 -1.046875 3.003906 -1.128906 3.171875 -1.296875 C 3.347656 -1.472656 3.4375 -1.691406 3.4375 -1.953125 C 3.4375 -2.222656 3.347656 -2.441406 3.171875 -2.609375 C 2.992188 -2.785156 2.78125 -2.875 2.53125 -2.875 C 2.269531 -2.875 2.050781 -2.785156 1.875 -2.609375 Z M 1.875 -2.609375 "/></g></g></g><g fill="#000000" fill-opacity="1"><g transform="translate(89.250925, 14.565684)"><g><path d="M 0.453125 0 L 0.453125 -3.921875 L 1.8125 -3.921875 L 1.8125 -3.5 L 1.828125 -3.5 C 2.179688 -3.851562 2.554688 -4.03125 2.953125 -4.03125 C 3.140625 -4.03125 3.328125 -4.003906 3.515625 -3.953125 C 3.710938 -3.898438 3.898438 -3.820312 4.078125 -3.71875 C 4.253906 -3.613281 4.394531 -3.460938 4.5 -3.265625 C 4.613281 -3.066406 4.671875 -2.835938 4.671875 -2.578125 L 4.671875 0 L 3.3125 0 L 3.3125 -2.21875 C 3.3125 -2.414062 3.242188 -2.59375 3.109375 -2.75 C 2.984375 -2.90625 2.816406 -2.984375 2.609375 -2.984375 C 2.410156 -2.984375 2.226562 -2.898438 2.0625 -2.734375 C 1.894531 -2.578125 1.8125 -2.40625 1.8125 -2.21875 L 1.8125 0 Z M 0.453125 0 "/></g></g></g><g fill="#000000" fill-opacity="1"><g transform="translate(94.160137, 14.565684)"><g><path d="M 2.15625 -4.03125 C 2.382812 -4.03125 2.609375 -4.003906 2.828125 -3.953125 C 3.046875 -3.898438 3.207031 -3.851562 3.3125 -3.8125 L 3.46875 -3.734375 L 3.03125 -2.84375 C 2.726562 -3.007812 2.4375 -3.09375 2.15625 -3.09375 C 2.007812 -3.09375 1.898438 -3.070312 1.828125 -3.03125 C 1.765625 -3 1.734375 -2.9375 1.734375 -2.84375 C 1.734375 -2.820312 1.734375 -2.800781 1.734375 -2.78125 C 1.742188 -2.769531 1.753906 -2.753906 1.765625 -2.734375 C 1.785156 -2.710938 1.800781 -2.695312 1.8125 -2.6875 C 1.832031 -2.675781 1.859375 -2.660156 1.890625 -2.640625 C 1.921875 -2.628906 1.941406 -2.617188 1.953125 -2.609375 C 1.972656 -2.597656 2.003906 -2.582031 2.046875 -2.5625 C 2.085938 -2.550781 2.117188 -2.539062 2.140625 -2.53125 C 2.160156 -2.53125 2.191406 -2.519531 2.234375 -2.5 C 2.285156 -2.488281 2.328125 -2.476562 2.359375 -2.46875 C 2.515625 -2.425781 2.648438 -2.375 2.765625 -2.3125 C 2.878906 -2.257812 3 -2.1875 3.125 -2.09375 C 3.257812 -2 3.363281 -1.875 3.4375 -1.71875 C 3.507812 -1.570312 3.546875 -1.40625 3.546875 -1.21875 C 3.546875 -0.332031 2.925781 0.109375 1.6875 0.109375 C 1.40625 0.109375 1.140625 0.0664062 0.890625 -0.015625 C 0.640625 -0.0976562 0.457031 -0.1875 0.34375 -0.28125 L 0.171875 -0.40625 L 0.71875 -1.34375 C 0.757812 -1.300781 0.8125 -1.253906 0.875 -1.203125 C 0.945312 -1.160156 1.066406 -1.097656 1.234375 -1.015625 C 1.410156 -0.929688 1.566406 -0.890625 1.703125 -0.890625 C 1.972656 -0.890625 2.109375 -0.984375 2.109375 -1.171875 C 2.109375 -1.253906 2.070312 -1.316406 2 -1.359375 C 1.9375 -1.410156 1.816406 -1.46875 1.640625 -1.53125 C 1.472656 -1.59375 1.34375 -1.648438 1.25 -1.703125 C 1 -1.828125 0.800781 -1.96875 0.65625 -2.125 C 0.519531 -2.289062 0.453125 -2.507812 0.453125 -2.78125 C 0.453125 -3.175781 0.601562 -3.484375 0.90625 -3.703125 C 1.21875 -3.921875 1.632812 -4.03125 2.15625 -4.03125 Z M 2.15625 -4.03125 "/></g></g></g><g fill="#000000" fill-opacity="1"><g transform="translate(97.779057, 14.565684)"><g/></g></g><g fill="#000000" fill-opacity="1"><g transform="translate(99.725943, 14.565684)"><g><path d="M 0.453125 -6.296875 L 2.28125 -6.296875 C 3.15625 -6.296875 3.90625 -6 4.53125 -5.40625 C 5.15625 -4.8125 5.46875 -4.0625 5.46875 -3.15625 C 5.46875 -2.25 5.15625 -1.492188 4.53125 -0.890625 C 3.914062 -0.296875 3.164062 0 2.28125 0 L 0.453125 0 Z M 1.890625 -1.28125 L 2.109375 -1.28125 C 2.640625 -1.28125 3.070312 -1.457031 3.40625 -1.8125 C 3.738281 -2.164062 3.90625 -2.609375 3.90625 -3.140625 C 3.90625 -3.679688 3.738281 -4.128906 3.40625 -4.484375 C 3.070312 -4.835938 2.640625 -5.015625 2.109375 -5.015625 L 1.890625 -5.015625 Z M 1.890625 -1.28125 "/></g></g></g><g fill="#000000" fill-opacity="1"><g transform="translate(105.223041, 14.565684)"><g><path d="M 4.421875 -1.765625 L 1.578125 -1.765625 C 1.578125 -1.492188 1.664062 -1.289062 1.84375 -1.15625 C 2.019531 -1.03125 2.21875 -0.96875 2.4375 -0.96875 C 2.65625 -0.96875 2.828125 -0.992188 2.953125 -1.046875 C 3.078125 -1.109375 3.222656 -1.222656 3.390625 -1.390625 L 4.359375 -0.90625 C 3.953125 -0.226562 3.273438 0.109375 2.328125 0.109375 C 1.734375 0.109375 1.222656 -0.0859375 0.796875 -0.484375 C 0.378906 -0.890625 0.171875 -1.378906 0.171875 -1.953125 C 0.171875 -2.523438 0.378906 -3.015625 0.796875 -3.421875 C 1.222656 -3.828125 1.734375 -4.03125 2.328125 -4.03125 C 2.953125 -4.03125 3.457031 -3.847656 3.84375 -3.484375 C 4.238281 -3.128906 4.4375 -2.617188 4.4375 -1.953125 C 4.4375 -1.859375 4.429688 -1.796875 4.421875 -1.765625 Z M 1.625 -2.515625 L 3.109375 -2.515625 C 3.078125 -2.722656 2.992188 -2.878906 2.859375 -2.984375 C 2.734375 -3.097656 2.570312 -3.15625 2.375 -3.15625 C 2.144531 -3.15625 1.960938 -3.09375 1.828125 -2.96875 C 1.703125 -2.851562 1.632812 -2.703125 1.625 -2.515625 Z M 1.625 -2.515625 "/></g></g></g><g fill="#000000" fill-opacity="1"><g transform="translate(109.689435, 14.565684)"><g><path d="M 1.453125 -3.921875 L 2.40625 -1.78125 L 3.359375 -3.921875 L 4.96875 -3.921875 L 2.859375 0 L 1.953125 0 L -0.15625 -3.921875 Z M 1.453125 -3.921875 "/></g></g></g><g fill="#000000" fill-opacity="1"><g transform="translate(114.36197, 14.565684)"><g><path d="M 4.421875 -1.765625 L 1.578125 -1.765625 C 1.578125 -1.492188 1.664062 -1.289062 1.84375 -1.15625 C 2.019531 -1.03125 2.21875 -0.96875 2.4375 -0.96875 C 2.65625 -0.96875 2.828125 -0.992188 2.953125 -1.046875 C 3.078125 -1.109375 3.222656 -1.222656 3.390625 -1.390625 L 4.359375 -0.90625 C 3.953125 -0.226562 3.273438 0.109375 2.328125 0.109375 C 1.734375 0.109375 1.222656 -0.0859375 0.796875 -0.484375 C 0.378906 -0.890625 0.171875 -1.378906 0.171875 -1.953125 C 0.171875 -2.523438 0.378906 -3.015625 0.796875 -3.421875 C 1.222656 -3.828125 1.734375 -4.03125 2.328125 -4.03125 C 2.953125 -4.03125 3.457031 -3.847656 3.84375 -3.484375 C 4.238281 -3.128906 4.4375 -2.617188 4.4375 -1.953125 C 4.4375 -1.859375 4.429688 -1.796875 4.421875 -1.765625 Z M 1.625 -2.515625 L 3.109375 -2.515625 C 3.078125 -2.722656 2.992188 -2.878906 2.859375 -2.984375 C 2.734375 -3.097656 2.570312 -3.15625 2.375 -3.15625 C 2.144531 -3.15625 1.960938 -3.09375 1.828125 -2.96875 C 1.703125 -2.851562 1.632812 -2.703125 1.625 -2.515625 Z M 1.625 -2.515625 "/></g></g></g><g fill="#000000" fill-opacity="1"><g transform="translate(118.828361, 14.565684)"><g><path d="M 0.453125 0 L 0.453125 -6.578125 L 1.8125 -6.578125 L 1.8125 0 Z M 0.453125 0 "/></g></g></g><g fill="#000000" fill-opacity="1"><g transform="translate(120.958485, 14.565684)"><g><path d="M 0.828125 -0.46875 C 0.390625 -0.851562 0.171875 -1.347656 0.171875 -1.953125 C 0.171875 -2.554688 0.394531 -3.050781 0.84375 -3.4375 C 1.300781 -3.832031 1.863281 -4.03125 2.53125 -4.03125 C 3.1875 -4.03125 3.738281 -3.832031 4.1875 -3.4375 C 4.644531 -3.050781 4.875 -2.554688 4.875 -1.953125 C 4.875 -1.347656 4.648438 -0.851562 4.203125 -0.46875 C 3.765625 -0.0820312 3.207031 0.109375 2.53125 0.109375 C 1.832031 0.109375 1.265625 -0.0820312 0.828125 -0.46875 Z M 1.875 -2.609375 C 1.695312 -2.441406 1.609375 -2.222656 1.609375 -1.953125 C 1.609375 -1.679688 1.691406 -1.460938 1.859375 -1.296875 C 2.023438 -1.128906 2.25 -1.046875 2.53125 -1.046875 C 2.789062 -1.046875 3.003906 -1.128906 3.171875 -1.296875 C 3.347656 -1.472656 3.4375 -1.691406 3.4375 -1.953125 C 3.4375 -2.222656 3.347656 -2.441406 3.171875 -2.609375 C 2.992188 -2.785156 2.78125 -2.875 2.53125 -2.875 C 2.269531 -2.875 2.050781 -2.785156 1.875 -2.609375 Z M 1.875 -2.609375 "/></g></g></g><g fill="#000000" fill-opacity="1"><g transform="translate(125.867695, 14.565684)"><g><path d="M 4.484375 -3.421875 C 4.859375 -3.023438 5.046875 -2.535156 5.046875 -1.953125 C 5.046875 -1.378906 4.859375 -0.890625 4.484375 -0.484375 C 4.117188 -0.0859375 3.65625 0.109375 3.09375 0.109375 C 2.570312 0.109375 2.144531 -0.0507812 1.8125 -0.375 L 1.8125 1.984375 L 0.453125 1.984375 L 0.453125 -3.921875 L 1.796875 -3.921875 L 1.796875 -3.46875 L 1.8125 -3.46875 C 2.144531 -3.84375 2.570312 -4.03125 3.09375 -4.03125 C 3.65625 -4.03125 4.117188 -3.828125 4.484375 -3.421875 Z M 3.34375 -1.296875 C 3.519531 -1.472656 3.609375 -1.695312 3.609375 -1.96875 C 3.609375 -2.238281 3.523438 -2.457031 3.359375 -2.625 C 3.191406 -2.789062 2.96875 -2.875 2.6875 -2.875 C 2.425781 -2.875 2.207031 -2.785156 2.03125 -2.609375 C 1.863281 -2.441406 1.78125 -2.226562 1.78125 -1.96875 C 1.78125 -1.695312 1.867188 -1.472656 2.046875 -1.296875 C 2.222656 -1.128906 2.4375 -1.046875 2.6875 -1.046875 C 2.945312 -1.046875 3.164062 -1.128906 3.34375 -1.296875 Z M 3.34375 -1.296875 "/></g></g></g><g fill="#000000" fill-opacity="1"><g transform="translate(130.944875, 14.565684)"><g><path d="M 0.453125 0 L 0.453125 -3.921875 L 1.8125 -3.921875 L 1.8125 -3.5 L 1.828125 -3.5 C 2.179688 -3.851562 2.554688 -4.03125 2.953125 -4.03125 C 3.234375 -4.03125 3.5 -3.972656 3.75 -3.859375 C 4 -3.742188 4.1875 -3.5625 4.3125 -3.3125 C 4.707031 -3.789062 5.140625 -4.03125 5.609375 -4.03125 C 6.035156 -4.03125 6.394531 -3.910156 6.6875 -3.671875 C 6.988281 -3.441406 7.140625 -3.078125 7.140625 -2.578125 L 7.140625 0 L 5.796875 0 L 5.796875 -2.21875 C 5.796875 -2.425781 5.738281 -2.597656 5.625 -2.734375 C 5.507812 -2.878906 5.335938 -2.953125 5.109375 -2.953125 C 4.910156 -2.953125 4.757812 -2.890625 4.65625 -2.765625 C 4.550781 -2.648438 4.492188 -2.507812 4.484375 -2.34375 L 4.484375 0 L 3.125 0 L 3.125 -2.21875 C 3.125 -2.425781 3.066406 -2.597656 2.953125 -2.734375 C 2.835938 -2.878906 2.664062 -2.953125 2.4375 -2.953125 C 2.226562 -2.953125 2.070312 -2.882812 1.96875 -2.75 C 1.863281 -2.625 1.8125 -2.472656 1.8125 -2.296875 L 1.8125 0 Z M 0.453125 0 "/></g></g></g><g fill="#000000" fill-opacity="1"><g transform="translate(138.327785, 14.565684)"><g><path d="M 4.421875 -1.765625 L 1.578125 -1.765625 C 1.578125 -1.492188 1.664062 -1.289062 1.84375 -1.15625 C 2.019531 -1.03125 2.21875 -0.96875 2.4375 -0.96875 C 2.65625 -0.96875 2.828125 -0.992188 2.953125 -1.046875 C 3.078125 -1.109375 3.222656 -1.222656 3.390625 -1.390625 L 4.359375 -0.90625 C 3.953125 -0.226562 3.273438 0.109375 2.328125 0.109375 C 1.734375 0.109375 1.222656 -0.0859375 0.796875 -0.484375 C 0.378906 -0.890625 0.171875 -1.378906 0.171875 -1.953125 C 0.171875 -2.523438 0.378906 -3.015625 0.796875 -3.421875 C 1.222656 -3.828125 1.734375 -4.03125 2.328125 -4.03125 C 2.953125 -4.03125 3.457031 -3.847656 3.84375 -3.484375 C 4.238281 -3.128906 4.4375 -2.617188 4.4375 -1.953125 C 4.4375 -1.859375 4.429688 -1.796875 4.421875 -1.765625 Z M 1.625 -2.515625 L 3.109375 -2.515625 C 3.078125 -2.722656 2.992188 -2.878906 2.859375 -2.984375 C 2.734375 -3.097656 2.570312 -3.15625 2.375 -3.15625 C 2.144531 -3.15625 1.960938 -3.09375 1.828125 -2.96875 C 1.703125 -2.851562 1.632812 -2.703125 1.625 -2.515625 Z M 1.625 -2.515625 "/></g></g></g><g fill="#000000" fill-opacity="1"><g transform="translate(142.794176, 14.565684)"><g><path d="M 0.453125 0 L 0.453125 -3.921875 L 1.8125 -3.921875 L 1.8125 -3.5 L 1.828125 -3.5 C 2.179688 -3.851562 2.554688 -4.03125 2.953125 -4.03125 C 3.140625 -4.03125 3.328125 -4.003906 3.515625 -3.953125 C 3.710938 -3.898438 3.898438 -3.820312 4.078125 -3.71875 C 4.253906 -3.613281 4.394531 -3.460938 4.5 -3.265625 C 4.613281 -3.066406 4.671875 -2.835938 4.671875 -2.578125 L 4.671875 0 L 3.3125 0 L 3.3125 -2.21875 C 3.3125 -2.414062 3.242188 -2.59375 3.109375 -2.75 C 2.984375 -2.90625 2.816406 -2.984375 2.609375 -2.984375 C 2.410156 -2.984375 2.226562 -2.898438 2.0625 -2.734375 C 1.894531 -2.578125 1.8125 -2.40625 1.8125 -2.21875 L 1.8125 0 Z M 0.453125 0 "/></g></g></g><g fill="#000000" fill-opacity="1"><g transform="translate(147.703385, 14.565684)"><g><path d="M 0.6875 -3.921875 L 0.6875 -5.375 L 2.046875 -5.375 L 2.046875 -3.921875 L 2.859375 -3.921875 L 2.859375 -2.890625 L 2.046875 -2.890625 L 2.046875 -1.640625 C 2.046875 -1.273438 2.144531 -1.09375 2.34375 -1.09375 C 2.394531 -1.09375 2.445312 -1.101562 2.5 -1.125 C 2.5625 -1.144531 2.609375 -1.164062 2.640625 -1.1875 L 2.6875 -1.21875 L 3.015625 -0.125 C 2.722656 0.03125 2.394531 0.109375 2.03125 0.109375 C 1.769531 0.109375 1.546875 0.0664062 1.359375 -0.015625 C 1.179688 -0.109375 1.046875 -0.226562 0.953125 -0.375 C 0.859375 -0.53125 0.789062 -0.6875 0.75 -0.84375 C 0.707031 -1.007812 0.6875 -1.191406 0.6875 -1.390625 L 0.6875 -2.890625 L 0.125 -2.890625 L 0.125 -3.921875 Z M 0.6875 -3.921875 "/></g></g></g><g fill="#000000" fill-opacity="1"><g transform="translate(150.581727, 14.565684)"><g/></g></g><g fill="#000000" fill-opacity="1"><g transform="translate(152.52861, 14.565684)"><g><path d="M 0.21875 -1.65625 C 0.21875 -1.84375 0.257812 -2.019531 0.34375 -2.1875 C 0.4375 -2.363281 0.5625 -2.523438 0.71875 -2.671875 C 0.875 -2.816406 1.03125 -2.941406 1.1875 -3.046875 C 1.351562 -3.148438 1.539062 -3.257812 1.75 -3.375 C 1.332031 -3.90625 1.125 -4.375 1.125 -4.78125 C 1.125 -5.28125 1.296875 -5.675781 1.640625 -5.96875 C 1.992188 -6.269531 2.488281 -6.421875 3.125 -6.421875 C 3.71875 -6.421875 4.175781 -6.253906 4.5 -5.921875 C 4.832031 -5.585938 5 -5.207031 5 -4.78125 C 5 -4.601562 4.957031 -4.425781 4.875 -4.25 C 4.789062 -4.082031 4.6875 -3.9375 4.5625 -3.8125 C 4.445312 -3.695312 4.328125 -3.59375 4.203125 -3.5 C 4.078125 -3.40625 3.972656 -3.335938 3.890625 -3.296875 L 3.765625 -3.21875 L 4.59375 -2.359375 C 4.78125 -2.429688 5.09375 -2.691406 5.53125 -3.140625 L 6.40625 -2.28125 C 6.125 -1.945312 5.828125 -1.65625 5.515625 -1.40625 L 6.875 0 L 5.0625 0 L 4.4375 -0.65625 C 4.25 -0.507812 4.109375 -0.40625 4.015625 -0.34375 C 3.921875 -0.289062 3.78125 -0.21875 3.59375 -0.125 C 3.414062 -0.0390625 3.234375 0.015625 3.046875 0.046875 C 2.859375 0.0859375 2.648438 0.109375 2.421875 0.109375 C 2.210938 0.109375 2.007812 0.09375 1.8125 0.0625 C 1.625 0.03125 1.429688 -0.0234375 1.234375 -0.109375 C 1.046875 -0.191406 0.875 -0.296875 0.71875 -0.421875 C 0.570312 -0.554688 0.453125 -0.726562 0.359375 -0.9375 C 0.265625 -1.144531 0.21875 -1.382812 0.21875 -1.65625 Z M 3.125 -5.40625 C 2.945312 -5.40625 2.8125 -5.34375 2.71875 -5.21875 C 2.625 -5.101562 2.578125 -4.957031 2.578125 -4.78125 C 2.578125 -4.664062 2.613281 -4.539062 2.6875 -4.40625 C 2.769531 -4.28125 2.847656 -4.179688 2.921875 -4.109375 L 3.046875 -4 C 3.515625 -4.257812 3.75 -4.519531 3.75 -4.78125 C 3.75 -5.195312 3.539062 -5.40625 3.125 -5.40625 Z M 3.5 -1.609375 L 2.5 -2.59375 C 2.488281 -2.582031 2.46875 -2.570312 2.4375 -2.5625 C 2.40625 -2.550781 2.347656 -2.519531 2.265625 -2.46875 C 2.191406 -2.425781 2.128906 -2.375 2.078125 -2.3125 C 2.023438 -2.25 1.972656 -2.171875 1.921875 -2.078125 C 1.867188 -1.984375 1.84375 -1.878906 1.84375 -1.765625 C 1.84375 -1.597656 1.914062 -1.46875 2.0625 -1.375 C 2.207031 -1.289062 2.375 -1.25 2.5625 -1.25 C 2.707031 -1.25 2.859375 -1.273438 3.015625 -1.328125 C 3.179688 -1.390625 3.304688 -1.453125 3.390625 -1.515625 Z M 3.5 -1.609375 "/></g></g></g><g fill="#000000" fill-opacity="1"><g transform="translate(158.751012, 14.565684)"><g/></g></g><g fill="#000000" fill-opacity="1"><g transform="translate(160.697895, 14.565684)"><g><path d="M 0.453125 -6.296875 L 2.28125 -6.296875 C 3.15625 -6.296875 3.90625 -6 4.53125 -5.40625 C 5.15625 -4.8125 5.46875 -4.0625 5.46875 -3.15625 C 5.46875 -2.25 5.15625 -1.492188 4.53125 -0.890625 C 3.914062 -0.296875 3.164062 0 2.28125 0 L 0.453125 0 Z M 1.890625 -1.28125 L 2.109375 -1.28125 C 2.640625 -1.28125 3.070312 -1.457031 3.40625 -1.8125 C 3.738281 -2.164062 3.90625 -2.609375 3.90625 -3.140625 C 3.90625 -3.679688 3.738281 -4.128906 3.40625 -4.484375 C 3.070312 -4.835938 2.640625 -5.015625 2.109375 -5.015625 L 1.890625 -5.015625 Z M 1.890625 -1.28125 "/></g></g></g><g fill="#000000" fill-opacity="1"><g transform="translate(166.194991, 14.565684)"><g><path d="M 4.421875 -1.765625 L 1.578125 -1.765625 C 1.578125 -1.492188 1.664062 -1.289062 1.84375 -1.15625 C 2.019531 -1.03125 2.21875 -0.96875 2.4375 -0.96875 C 2.65625 -0.96875 2.828125 -0.992188 2.953125 -1.046875 C 3.078125 -1.109375 3.222656 -1.222656 3.390625 -1.390625 L 4.359375 -0.90625 C 3.953125 -0.226562 3.273438 0.109375 2.328125 0.109375 C 1.734375 0.109375 1.222656 -0.0859375 0.796875 -0.484375 C 0.378906 -0.890625 0.171875 -1.378906 0.171875 -1.953125 C 0.171875 -2.523438 0.378906 -3.015625 0.796875 -3.421875 C 1.222656 -3.828125 1.734375 -4.03125 2.328125 -4.03125 C 2.953125 -4.03125 3.457031 -3.847656 3.84375 -3.484375 C 4.238281 -3.128906 4.4375 -2.617188 4.4375 -1.953125 C 4.4375 -1.859375 4.429688 -1.796875 4.421875 -1.765625 Z M 1.625 -2.515625 L 3.109375 -2.515625 C 3.078125 -2.722656 2.992188 -2.878906 2.859375 -2.984375 C 2.734375 -3.097656 2.570312 -3.15625 2.375 -3.15625 C 2.144531 -3.15625 1.960938 -3.09375 1.828125 -2.96875 C 1.703125 -2.851562 1.632812 -2.703125 1.625 -2.515625 Z M 1.625 -2.515625 "/></g></g></g><g fill="#000000" fill-opacity="1"><g transform="translate(170.661382, 14.565684)"><g><path d="M 2.15625 -4.03125 C 2.382812 -4.03125 2.609375 -4.003906 2.828125 -3.953125 C 3.046875 -3.898438 3.207031 -3.851562 3.3125 -3.8125 L 3.46875 -3.734375 L 3.03125 -2.84375 C 2.726562 -3.007812 2.4375 -3.09375 2.15625 -3.09375 C 2.007812 -3.09375 1.898438 -3.070312 1.828125 -3.03125 C 1.765625 -3 1.734375 -2.9375 1.734375 -2.84375 C 1.734375 -2.820312 1.734375 -2.800781 1.734375 -2.78125 C 1.742188 -2.769531 1.753906 -2.753906 1.765625 -2.734375 C 1.785156 -2.710938 1.800781 -2.695312 1.8125 -2.6875 C 1.832031 -2.675781 1.859375 -2.660156 1.890625 -2.640625 C 1.921875 -2.628906 1.941406 -2.617188 1.953125 -2.609375 C 1.972656 -2.597656 2.003906 -2.582031 2.046875 -2.5625 C 2.085938 -2.550781 2.117188 -2.539062 2.140625 -2.53125 C 2.160156 -2.53125 2.191406 -2.519531 2.234375 -2.5 C 2.285156 -2.488281 2.328125 -2.476562 2.359375 -2.46875 C 2.515625 -2.425781 2.648438 -2.375 2.765625 -2.3125 C 2.878906 -2.257812 3 -2.1875 3.125 -2.09375 C 3.257812 -2 3.363281 -1.875 3.4375 -1.71875 C 3.507812 -1.570312 3.546875 -1.40625 3.546875 -1.21875 C 3.546875 -0.332031 2.925781 0.109375 1.6875 0.109375 C 1.40625 0.109375 1.140625 0.0664062 0.890625 -0.015625 C 0.640625 -0.0976562 0.457031 -0.1875 0.34375 -0.28125 L 0.171875 -0.40625 L 0.71875 -1.34375 C 0.757812 -1.300781 0.8125 -1.253906 0.875 -1.203125 C 0.945312 -1.160156 1.066406 -1.097656 1.234375 -1.015625 C 1.410156 -0.929688 1.566406 -0.890625 1.703125 -0.890625 C 1.972656 -0.890625 2.109375 -0.984375 2.109375 -1.171875 C 2.109375 -1.253906 2.070312 -1.316406 2 -1.359375 C 1.9375 -1.410156 1.816406 -1.46875 1.640625 -1.53125 C 1.472656 -1.59375 1.34375 -1.648438 1.25 -1.703125 C 1 -1.828125 0.800781 -1.96875 0.65625 -2.125 C 0.519531 -2.289062 0.453125 -2.507812 0.453125 -2.78125 C 0.453125 -3.175781 0.601562 -3.484375 0.90625 -3.703125 C 1.21875 -3.921875 1.632812 -4.03125 2.15625 -4.03125 Z M 2.15625 -4.03125 "/></g></g></g><g fill="#000000" fill-opacity="1"><g transform="translate(174.2803, 14.565684)"><g><path d="M 0.578125 -6.109375 C 0.742188 -6.265625 0.9375 -6.34375 1.15625 -6.34375 C 1.375 -6.34375 1.5625 -6.265625 1.71875 -6.109375 C 1.875 -5.953125 1.953125 -5.757812 1.953125 -5.53125 C 1.953125 -5.3125 1.875 -5.125 1.71875 -4.96875 C 1.5625 -4.8125 1.375 -4.734375 1.15625 -4.734375 C 0.9375 -4.734375 0.742188 -4.8125 0.578125 -4.96875 C 0.421875 -5.125 0.34375 -5.3125 0.34375 -5.53125 C 0.34375 -5.757812 0.421875 -5.953125 0.578125 -6.109375 Z M 0.453125 -3.921875 L 0.453125 0 L 1.8125 0 L 1.8125 -3.921875 Z M 0.453125 -3.921875 "/></g></g></g><g fill="#000000" fill-opacity="1"><g transform="translate(176.448597, 14.565684)"><g><path d="M 0.28125 0.96875 L 1.390625 0.421875 C 1.597656 0.753906 1.953125 0.921875 2.453125 0.921875 C 2.679688 0.921875 2.894531 0.84375 3.09375 0.6875 C 3.300781 0.539062 3.40625 0.3125 3.40625 0 L 3.40625 -0.28125 C 3.164062 -0.0195312 2.738281 0.109375 2.125 0.109375 C 1.5625 0.109375 1.09375 -0.0859375 0.71875 -0.484375 C 0.351562 -0.878906 0.171875 -1.367188 0.171875 -1.953125 C 0.171875 -2.535156 0.351562 -3.023438 0.71875 -3.421875 C 1.09375 -3.828125 1.5625 -4.03125 2.125 -4.03125 C 2.625 -4.03125 3.046875 -3.875 3.390625 -3.5625 L 3.40625 -3.5625 L 3.40625 -3.921875 L 4.765625 -3.921875 L 4.765625 0.109375 C 4.765625 0.742188 4.550781 1.234375 4.125 1.578125 C 3.695312 1.921875 3.140625 2.09375 2.453125 2.09375 C 1.328125 2.09375 0.601562 1.71875 0.28125 0.96875 Z M 1.875 -2.609375 C 1.695312 -2.441406 1.609375 -2.222656 1.609375 -1.953125 C 1.609375 -1.679688 1.691406 -1.460938 1.859375 -1.296875 C 2.023438 -1.128906 2.25 -1.046875 2.53125 -1.046875 C 2.789062 -1.046875 3.003906 -1.128906 3.171875 -1.296875 C 3.347656 -1.472656 3.4375 -1.691406 3.4375 -1.953125 C 3.4375 -2.222656 3.347656 -2.441406 3.171875 -2.609375 C 2.992188 -2.785156 2.78125 -2.875 2.53125 -2.875 C 2.269531 -2.875 2.050781 -2.785156 1.875 -2.609375 Z M 1.875 -2.609375 "/></g></g></g><g fill="#000000" fill-opacity="1"><g transform="translate(181.525777, 14.565684)"><g><path d="M 0.453125 0 L 0.453125 -3.921875 L 1.8125 -3.921875 L 1.8125 -3.5 L 1.828125 -3.5 C 2.179688 -3.851562 2.554688 -4.03125 2.953125 -4.03125 C 3.140625 -4.03125 3.328125 -4.003906 3.515625 -3.953125 C 3.710938 -3.898438 3.898438 -3.820312 4.078125 -3.71875 C 4.253906 -3.613281 4.394531 -3.460938 4.5 -3.265625 C 4.613281 -3.066406 4.671875 -2.835938 4.671875 -2.578125 L 4.671875 0 L 3.3125 0 L 3.3125 -2.21875 C 3.3125 -2.414062 3.242188 -2.59375 3.109375 -2.75 C 2.984375 -2.90625 2.816406 -2.984375 2.609375 -2.984375 C 2.410156 -2.984375 2.226562 -2.898438 2.0625 -2.734375 C 1.894531 -2.578125 1.8125 -2.40625 1.8125 -2.21875 L 1.8125 0 Z M 0.453125 0 "/></g></g></g></svg>